Coordinates
version=1
nRows=29
nColumns=24
inDegrees=yes

Units are S.I. units (second, meters, Newtons, ...)
Angles are in degrees.

endheader
time	pelvis_tilt	pelvis_list	pelvis_rotation	pelvis_tx	pelvis_ty	pelvis_tz	hip_flexion_r	hip_adduction_r	hip_rotation_r	knee_angle_r	ankle_angle_r	subtalar_angle_r	mtp_angle_r	hip_flexion_l	hip_adduction_l	hip_rotation_l	knee_angle_l	ankle_angle_l	subtalar_angle_l	mtp_angle_l	lumbar_extension	lumbar_bending	lumbar_rotation
      1.06233333	     -3.15410576	     -2.46684946	     -4.98023344	     -0.14513320	      0.97104200	      0.34976129	    -10.46510087	      6.11853181	     -3.39471773	     -9.16178593	     14.72985648	      2.60736772	      8.10054032	     26.13769320	     -2.48776172	     -4.09401963	     -0.24408224	     -1.13131811	     -2.56251909	     -0.48453025	     -1.57409365	      5.44890246	      7.00091129
      1.06650000	     -3.22961630	     -2.39197972	     -5.01331531	     -0.13929713	      0.97039685	      0.34946633	    -10.47525000	      5.96729842	     -3.46415046	     -9.68102182	     14.86933725	      2.72836211	      8.00298518	     26.08668734	     -2.35599787	     -4.03619241	     -0.16245453	     -1.46479177	     -2.83739799	     -0.38138145	     -1.44523501	      5.36656625	      7.06687942
      1.07066667	     -3.27832477	     -2.30485032	     -5.02251722	     -0.13341038	      0.96985412	      0.34917211	    -10.53797257	      5.81277082	     -3.48970729	    -10.13817072	     14.80099886	      2.66485521	      7.97665514	     26.05602136	     -2.21030086	     -4.09581768	     -0.24073877	     -1.77767192	     -2.90290506	     -0.35414253	     -1.35049958	      5.27251442	      7.06314358
      1.07483333	     -3.39618624	     -2.21103276	     -5.04087577	     -0.12755528	      0.96926331	      0.34884186	    -10.46567172	      5.64486067	     -3.54611893	    -10.71974438	     14.89130122	      2.76934445	      7.90569417	     26.07353386	     -2.05848874	     -3.96272070	     -0.31945068	     -2.24197093	     -3.35637029	     -0.22196379	     -1.17634126	      5.16406532	      7.12550103
      1.07900000	     -3.47340751	     -2.08789649	     -5.04138952	     -0.12161750	      0.96879203	      0.34849734	    -10.44870476	      5.44664843	     -3.59206728	    -11.26891701	     14.84986419	      2.78513801	      7.85256842	     26.06159082	     -1.87240773	     -3.89620324	     -0.48081917	     -2.69910333	     -3.67413609	     -0.08712209	     -1.04378583	      5.03204364	      7.13955266
      1.08316667	     -3.57373322	     -1.98063832	     -5.03979928	     -0.11568115	      0.96834790	      0.34815542	    -10.37841108	      5.26736851	     -3.64112372	    -11.87299020	     14.78271145	      2.77478061	      7.81456150	     26.08706233	     -1.70575871	     -3.79656165	     -0.71561361	     -3.18066948	     -4.06919329	      0.06930763	     -0.86722994	      4.90119867	      7.15561698
      1.08733333	     -3.67030191	     -1.85801635	     -5.02896000	     -0.10971371	      0.96796846	      0.34778359	    -10.29588828	      5.07081309	     -3.68192866	    -12.50342058	     14.68429266	      2.73249381	      7.79620602	     26.11347145	     -1.52007831	     -3.67977120	     -1.00098802	     -3.68902608	     -4.48839288	      0.24057691	     -0.69937669	      4.76441638	      7.16709569
      1.09150000	     -3.76930125	     -1.72125398	     -5.00921435	     -0.10371332	      0.96764131	      0.34740752	    -10.19499668	      4.86201715	     -3.71476317	    -13.16092387	     14.55397810	      2.66560201	      7.79995693	     26.15174699	     -1.31919591	     -3.55443496	     -1.33927564	     -4.22944343	     -4.92939000	      0.40688472	     -0.52339130	      4.60724018	      7.17240486
      1.09566667	     -3.86533280	     -1.58103488	     -4.97801119	     -0.09769509	      0.96737025	      0.34700149	    -10.07511777	      4.64905696	     -3.74758550	    -13.85587402	     14.38038329	      2.57822608	      7.82621609	     26.19394423	     -1.11007648	     -3.40708629	     -1.72162555	     -4.77616862	     -5.40060091	      0.57986606	     -0.34947790	      4.45279171	      7.16866890
      1.09983333	     -3.96377817	     -1.43286910	     -4.94350516	     -0.09164835	      0.96715565	      0.34658127	     -9.92727302	      4.42642585	     -3.78425297	    -14.59587367	     14.17225967	      2.47035478	      7.87775635	     26.24451340	     -0.89226260	     -3.24656612	     -2.14456393	     -5.32912940	     -5.88781828	      0.75821992	     -0.16951795	      4.28321193	      7.16050596
      1.10400000	     -4.05699691	     -1.27753336	     -4.89436515	     -0.08557899	      0.96700161	      0.34613387	     -9.76501921	      4.19713479	     -3.81379884	    -15.36762205	     13.91713981	      2.33855384	      7.95548590	     26.29721700	     -0.66172744	     -3.07307382	     -2.60292482	     -5.88426985	     -6.38655685	      0.93505758	      0.00585049	      4.10802659	      7.14387052
      1.10816667	     -4.15382467	     -1.11787760	     -4.83867083	     -0.07949113	      0.96689756	      0.34567015	     -9.57087221	      3.96372283	     -3.84293139	    -16.18726965	     13.62086595	      2.18229716	      8.06342898	     26.35992285	     -0.42478443	     -2.89033938	     -3.09227873	     -6.42665254	     -6.88614639	      1.11358487	      0.19080812	      3.92569025	      7.12208402
      1.11233333	     -4.24075478	     -0.95221039	     -4.77476388	     -0.07338494	      0.96685673	      0.34518355	     -9.36020091	      3.72227458	     -3.87079640	    -17.05149244	     13.27795239	      2.00473795	      8.21254268	     26.41712268	     -0.17781284	     -2.69743701	     -3.60869097	     -6.94437593	     -7.38560006	      1.30010815	      0.36583632	      3.73442316	      7.09538157
      1.11650000	     -4.33046347	     -0.78162926	     -4.70222887	     -0.06725943	      0.96686600	      0.34468574	     -9.11722856	      3.47631818	     -3.89898632	    -17.96250877	     12.88394291	      1.82116750	      8.39420785	     26.48390675	      0.07621490	     -2.50811666	     -4.15258469	     -7.44391226	     -7.86742786	      1.47526918	      0.55067883	      3.53492412	      7.06224382
      1.12066667	     -4.38796626	     -0.58450460	     -4.61017216	     -0.06109732	      0.96695066	      0.34412836	     -8.88311915	      3.19497526	     -3.95593605	    -18.91394391	     12.46869168	      1.63729662	      8.76068102	     26.51808481	      0.37253412	     -2.28728419	     -4.71490958	     -7.88714896	     -8.42673486	      1.75021088	      0.69008869	      3.31278324	      7.02117819
      1.12483333	     -4.46711964	     -0.40947307	     -4.53413987	     -0.05494485	      0.96707341	      0.34361224	     -8.58521840	      2.93865806	     -3.97913541	    -19.92846165	     11.92324792	      1.43096666	      8.98213424	     26.57476291	      0.62902718	     -2.13268681	     -5.28348868	     -8.32257836	     -8.75521480	      1.87923320	      0.87006214	      3.11092569	      6.97893629
      1.12900000	     -4.53615251	     -0.21236849	     -4.44058145	     -0.04877720	      0.96724237	      0.34303874	     -8.26673628	      2.65485505	     -4.01565277	    -20.99184665	     11.36929579	      1.21183227	      9.23859320	     26.62361015	      0.92182532	     -1.94213812	     -5.86926980	     -8.69553475	     -9.17233253	      1.99508540	      1.03045900	      2.88995638	      6.93456962
      1.13316667	     -4.58550356	     -0.01680044	     -4.33168248	     -0.04260083	      0.96746923	      0.34244867	     -7.94080050	      2.37018833	     -4.07050942	    -22.09709059	     10.76242347	      1.01664423	      9.62182534	     26.66115320	      1.22126596	     -1.75221818	     -6.48568602	     -9.01634678	     -9.63528364	      2.12818277	      1.17802478	      2.64592883	      6.88279101
      1.13733333	     -4.55133316	      0.21333265	     -4.20082433	     -0.03634868	      0.96784228	      0.34177550	     -7.68385868	      2.02090449	     -4.21848331	    -23.21220577	      9.92125071	      0.84229423	     15.15853398	     26.57475925	      1.57598089	     -1.53701612	     -7.04175983	     -9.27383314	    -10.03642033	      3.54786475	      1.21894387	      2.37667907	      6.83206147
      1.14150000	     -4.60551435	      0.42131120	     -4.11721912	     -0.03019100	      0.96814171	      0.34121096	     -7.26573095	      1.71727407	     -4.21417013	    -24.45329283	      9.23255174	      0.55733535	     15.19736273	     26.60625499	      1.87029328	     -1.43041044	     -7.65245078	     -9.46189307	    -10.25986759	      3.53311352	      1.36768991	      2.13525679	      6.77737749
      1.14566667	     -4.63353803	      0.63392339	     -4.00553818	     -0.02401302	      0.96850685	      0.34058335	     -6.85340981	      1.39981044	     -4.26050803	    -25.71704817	      8.42419592	      0.33548539	     15.27516595	     26.59814526	      2.18979274	     -1.26734976	     -8.24965170	     -9.59096302	    -10.56174641	      3.51029478	      1.48523635	      1.88891058	      6.72625052
      1.14983333	     -4.63922501	      0.86658076	     -3.88768627	     -0.01783361	      0.96892212	      0.33991846	     -6.43475189	      1.05300065	     -4.31096477	    -27.01846300	      7.55720815	      0.13448532	     15.37321723	     26.55533809	      2.53733326	     -1.10662752	     -8.83156248	     -9.65855661	    -10.83664434	      3.48396013	      1.56791326	      1.62387499	      6.67230552
      1.15400000	     -4.64909807	      1.07750511	     -3.76491104	     -0.01169937	      0.96934187	      0.33923599	     -5.96902344	      0.72043560	     -4.38365281	    -28.38188656	      6.62350032	     -0.00533800	     15.61181512	     26.51280840	      2.86859635	     -0.92676623	     -9.40897727	     -9.72006373	    -11.22186688	      3.42117204	      1.65805291	      1.38164115	      6.60764374
      1.15816667	     -4.63532715	      1.31094495	     -3.64107705	     -0.00555314	      0.96982114	      0.33853981	     -5.50111587	      0.35604020	     -4.45717018	    -29.77496175	      5.60231950	     -0.15719144	     15.91185074	     26.42109483	      3.22451848	     -0.76802914	     -9.94544097	     -9.69963140	    -11.49237495	      3.34169342	      1.72001835	      1.11354523	      6.54563900
      1.16233333	     -4.55703949	      1.57783734	     -3.50454689	      0.00062487	      0.97041283	      0.33778998	     -5.08197138	     -0.06925951	     -4.58651439	    -31.17969480	      4.45232448	     -0.33068722	     20.41929272	     26.21255037	      3.63268261	     -0.55964522	    -10.39581092	     -9.60166791	    -11.76310386	      2.13237971	      1.70943440	      0.80006789	      6.48202656
      1.16650000	     -4.55511729	      1.81685076	     -3.39371515	      0.00670207	      0.97091293	      0.33712518	     -4.53526255	     -0.43918965	     -4.60016131	    -32.65233367	      3.35312291	     -0.57516401	     20.43307553	     26.11160259	      3.98262259	     -0.46273432	    -10.89725956	     -9.44955836	    -11.87333068	      2.13242552	      1.77948637	      0.52537085	      6.42033385
      1.17066667	     -4.54735009	      2.04610962	     -3.26955109	      0.01274666	      0.97143415	      0.33641958	     -3.96989931	     -0.80928950	     -4.64347431	    -34.14345662	      2.15058619	     -0.76431885	     20.46775155	     25.98093596	      4.33469375	     -0.33056645	    -11.35449404	     -9.27706190	    -12.05324034	      2.12254342	      1.84418824	      0.27048162	      6.35898628
      1.17483333	     -4.52046670	      2.28326170	     -3.14236299	      0.01875577	      0.97198426	      0.33571029	     -3.40042524	     -1.19138391	     -4.67983064	    -35.65706419	      0.91749028	     -0.94910487	     20.50740019	     25.80994686	      4.69910323	     -0.19483762	    -11.77496940	     -9.06162661	    -12.22189636	      2.10801176	      1.87145027	     -0.01052065	      6.29304258
      1.17900000	     -4.50480829	      2.51062195	     -3.01426262	      0.02473485	      0.97254820	      0.33498991	     -2.79434527	     -1.57226790	     -4.73127826	    -37.18465466	     -0.40671500	     -1.11593961	     20.56824249	     25.61988366	      5.05454825	     -0.05959406	    -12.13297876	     -8.85930249	    -12.41932335	      2.07868962	      1.92139522	     -0.25442694	      6.22248124
